# xmcd CD database file
#
# Track frame offsets:
#	150
#	15341
#	36555
#	52148
#	68309
#	82347
#	100254
#	118532
#	135425
#	156552
#	173171
#
# Disc length: 2523 seconds
#
# Revision: 0
# Processed by: cddbd v1.5.2PL0 Copyright (c) Steve Scherf et al.
# Submitted via: CDex 1.51
#
DISCID=9109d90b
DTITLE=Jordyn Stoddard - Southern Tide
DYEAR=2015
DGENRE=Country
TTITLE0=Like MeTil You Love Me
TTITLE1=The Clown
TTITLE2=Southern Tide
TTITLE3=Heart First
TTITLE4=Politician
TTITLE5=No One Wins
TTITLE6=Burn Out Bright
TTITLE7=Talk Like That
TTITLE8=Disasterpiece
TTITLE9=Sixteen
TTITLE10=Dreams
EXTD=YEAR: 2015
EXTT0=
EXTT1=
EXTT2=
EXTT3=
EXTT4=
EXTT5=
EXTT6=
EXTT7=
EXTT8=
EXTT9=
EXTT10=
PLAYORDER=
